<svg width="1024" height="295" xmlns="http://www.w3.org/2000/svg">
 <title>reading</title>

 <g>
  <title>background</title>
  <rect fill="none" id="canvas_background" height="297" width="1026" y="-1" x="-1"/>
 </g>
 <g>
  <title>Layer 1</title>
  <path id="svg_11" fill="#f2f2f2" d="m205,108.770868c0,-6.49686 -9.2638,-11.76359 -20.69132,-11.76359c-0.22617,0 -0.44993,0.00558 -0.67436,0.00968c-3.44726,-10.56733 -19.74316,-18.57 -39.32885,-18.57c-16.66388,0 -30.94586,5.79338 -36.96,14.03014a52.407,52.407 0 0 0 -13.61878,-1.74372c-17.52218,-0.00002 -31.72669,8.07569 -31.72669,18.03749c0,9.04918 11.72185,16.54056 27.00353,17.83751c11.10464,2.03037 28.45034,3.337 47.945,3.337c33.09671,0 57.3139,-6.31342 57.92127,-11.059c6.06451,-2.05103 10.1302,-5.81258 10.1302,-10.11551z"/>
  <path id="svg_12" fill="#f2f2f2" d="m647,205.770868c0,-6.49686 -9.2638,-11.76359 -20.69132,-11.76359c-0.22617,0 -0.44993,0.00558 -0.67436,0.00968c-3.44726,-10.56733 -19.74316,-18.57 -39.32885,-18.57c-16.66388,0 -30.94586,5.79338 -36.96,14.03014a52.407,52.407 0 0 0 -13.61878,-1.74372c-17.52218,-0.00002 -31.72669,8.07569 -31.72669,18.03749c0,9.04918 11.72185,16.54056 27.00353,17.83751c11.10464,2.03037 28.45034,3.337 47.945,3.337c33.09671,0 57.3139,-6.31342 57.92127,-11.059c6.06451,-2.05103 10.1302,-5.81258 10.1302,-10.11551z"/>
  <path id="svg_13" fill="#f2f2f2" d="m1004,86.225908c0,-11.40358 -16.26024,-20.648 -36.31833,-20.648c-0.397,0 -0.78973,0.0098 -1.18366,0.017c-6.05079,-18.54826 -34.65409,-32.59493 -69.03177,-32.59493c-29.24919,0 -54.31755,10.16878 -64.87384,24.62632a91.9875,91.9875 0 0 0 -23.9043,-3.06065c-30.7557,0 -55.6881,14.17477 -55.6881,31.66024c0,15.88353 20.57472,29.03273 47.39781,31.30919c19.49135,3.5638 49.93731,5.85718 84.15524,5.85718c58.09283,0 100.59992,-11.0816 101.666,-19.41123c10.64467,-3.59996 17.78095,-10.20242 17.78095,-17.75512z"/>
 </g>
</svg>